<?xml version="1.0" standalone="no"?>
<!DOCTYPE svg PUBLIC "-//W3C//DTD SVG 20010904//EN"
 "http://www.w3.org/TR/2001/REC-SVG-20010904/DTD/svg10.dtd">
<svg version="1.0" xmlns="http://www.w3.org/2000/svg"
 width="487.000000pt" height="354.000000pt" viewBox="0 0 487.000000 354.000000"
 preserveAspectRatio="xMidYMid meet">

<g transform="translate(0.000000,354.000000) scale(0.100000,-0.100000)"
fill="#000000" stroke="none">
<path d="M1590 3069 c0 -6 -17 -10 -42 -9 -53 3 -88 -8 -88 -26 0 -8 -9 -14
-19 -14 -19 0 -125 -96 -127 -115 0 -5 -2 -15 -2 -21 -2 -12 -32 -15 -32 -2 0
4 7 8 15 8 17 0 20 16 5 25 -5 3 -10 2 -10 -3 0 -10 -59 -37 -90 -41 -5 0 -10
-8 -10 -16 0 -8 -5 -15 -10 -15 -6 0 -27 -16 -47 -35 -20 -19 -41 -34 -47 -33
-6 2 -31 -13 -55 -32 -24 -19 -48 -34 -54 -32 -5 2 -7 -5 -3 -14 5 -13 2 -15
-18 -10 -16 4 -40 -2 -67 -16 -23 -11 -56 -22 -74 -23 -30 -2 -94 -45 -67 -45
6 0 14 5 17 10 4 6 11 7 17 4 7 -4 8 -2 4 4 -4 7 -1 12 7 12 13 0 57 -60 57
-77 0 -3 -19 -3 -42 1 -41 7 -42 6 -23 -9 19 -16 19 -16 -12 -12 -18 2 -31 1
-28 -1 3 -3 0 -11 -6 -18 -5 -7 -12 -31 -14 -54 -3 -24 -10 -49 -17 -58 -11
-12 -11 -16 0 -20 9 -3 10 -7 2 -17 -9 -11 -7 -12 9 -8 12 3 21 1 21 -6 0 -6
-3 -10 -7 -10 -5 1 -14 1 -22 0 -18 -1 35 -51 55 -51 11 0 13 -7 8 -27 -7 -25
-6 -27 9 -14 15 12 17 11 17 -3 0 -10 -4 -15 -8 -12 -14 8 -30 -8 -37 -37 -6
-22 -4 -26 8 -21 8 3 18 1 22 -5 3 -6 1 -11 -5 -11 -7 0 -9 -8 -5 -19 3 -11 1
-22 -5 -26 -7 -4 -9 -18 -5 -32 5 -20 3 -24 -9 -20 -11 5 -22 -5 -36 -33 -11
-22 -20 -46 -20 -53 0 -8 -8 -14 -17 -13 -26 2 -43 -45 -48 -126 -2 -40 -7
-107 -10 -148 -6 -63 -4 -84 15 -135 13 -33 26 -80 30 -105 4 -25 8 -39 9 -31
0 8 8 11 19 9 22 -6 48 27 43 55 -2 13 5 17 32 17 36 0 67 23 47 35 -5 3 -10
12 -10 18 0 8 3 8 8 2 4 -6 14 -10 22 -10 25 2 37 -13 38 -51 2 -45 4 -47 42
-47 20 0 32 -6 36 -19 3 -10 9 -18 14 -18 5 0 11 -9 15 -19 9 -28 47 -50 77
-44 19 4 27 12 30 34 3 16 1 34 -4 41 -6 10 -8 8 -8 -4 0 -10 -5 -18 -10 -18
-12 0 -9 -22 5 -32 6 -5 6 -8 -2 -8 -6 0 -15 5 -18 10 -3 6 -18 10 -32 10 -16
0 -27 7 -30 20 -3 11 -9 20 -14 20 -14 0 -10 26 6 40 19 16 11 25 -23 25 -44
0 -41 37 7 92 23 25 41 50 41 54 0 5 16 30 36 56 52 69 74 80 74 40 0 -15 -9
-28 -24 -35 -15 -7 -29 -26 -38 -53 -13 -40 -13 -46 6 -81 17 -30 27 -38 50
-38 l29 0 -7 -54 c-5 -43 -3 -58 10 -71 26 -26 59 -15 61 20 l2 30 -10 -27
c-6 -16 -15 -28 -20 -28 -12 0 -11 7 1 30 9 16 8 19 -7 14 -10 -3 -6 3 10 12
15 10 27 22 27 26 0 5 7 8 15 8 8 0 15 5 15 10 0 6 -7 10 -15 10 -20 0 -19 12
4 39 25 28 45 18 36 -18 l-7 -26 27 25 c26 24 26 25 6 28 -14 2 -21 10 -19 20
2 11 -5 18 -19 20 -14 2 -20 8 -17 17 4 9 -3 16 -19 20 -24 6 -57 55 -37 55 6
0 10 7 10 15 0 8 6 15 14 15 8 0 17 9 21 20 3 11 12 19 18 17 7 -1 11 3 10 9
-1 7 6 10 18 7 12 -4 25 0 29 7 6 9 11 0 15 -26 8 -51 34 -104 52 -104 7 0 18
-11 23 -24 12 -32 27 -40 75 -43 47 -2 56 8 43 55 -10 36 1 55 28 45 7 -2 22
0 33 7 14 7 21 7 21 0 0 -19 42 -11 47 10 3 11 8 18 12 15 9 -5 7 32 -2 41 -4
4 -7 -1 -7 -12 0 -16 -3 -14 -17 8 -9 15 -25 29 -35 31 -11 3 -18 14 -18 30 0
28 -33 62 -51 51 -8 -4 -10 -3 -5 4 4 7 2 12 -5 12 -9 0 -10 3 -2 11 8 8 19 6
41 -5 38 -20 42 -20 42 -2 0 8 -7 17 -16 20 -21 8 -8 26 19 26 18 0 19 -2 7
-11 -11 -7 -7 -9 20 -8 63 2 72 0 66 -16 -3 -8 1 -20 7 -27 15 -15 29 -46 32
-70 1 -10 5 -21 8 -25 8 -8 36 26 37 44 0 6 9 15 20 18 27 9 25 31 -6 60 -15
14 -21 25 -15 25 7 0 9 4 6 10 -3 5 0 7 8 4 8 -3 20 2 27 11 8 10 9 15 1 15
-6 0 -11 -5 -11 -12 0 -9 -3 -9 -11 -1 -9 9 -8 16 3 27 9 8 18 13 21 10 3 -3
4 6 3 20 -2 16 2 26 10 26 16 0 27 32 18 54 -3 9 -1 16 5 16 6 0 11 6 11 14 0
9 7 12 20 9 11 -3 20 0 20 6 0 22 28 10 32 -14 4 -20 2 -23 -7 -15 -18 15 -23
3 -20 -53 2 -37 -1 -47 -11 -43 -11 4 -11 2 -2 -14 9 -14 14 -16 20 -7 5 9 11
7 21 -7 8 -11 21 -17 29 -13 22 8 19 144 -3 161 -9 6 -14 16 -12 23 2 6 -3 25
-11 41 -14 28 -58 48 -93 43 -7 -1 -13 3 -13 9 0 5 -7 10 -15 10 -19 0 -19 4
2 43 15 30 15 31 0 18 -15 -12 -17 -11 -17 3 0 9 6 16 13 16 7 0 22 7 33 15
18 14 17 14 -8 5 -18 -6 -28 -6 -28 0 0 6 -7 10 -15 10 -9 0 -15 10 -15 26 0
19 -4 25 -15 20 -10 -4 -15 1 -15 14 0 11 -7 20 -15 20 -8 0 -16 7 -16 15 -1
8 -2 21 -3 28 -1 6 2 18 7 25 7 9 6 11 -7 6 -9 -3 -16 -12 -16 -19 0 -8 -7
-11 -18 -8 -10 2 -31 -1 -47 -8 -43 -18 -55 -19 -82 -8 -16 6 -31 5 -45 -2
-16 -9 -24 -7 -42 10 -12 12 -33 21 -45 21 -16 0 -21 4 -18 14 3 8 -1 20 -10
27 -12 11 -17 10 -24 -4 -6 -9 -17 -17 -26 -17 -12 0 -13 3 -4 14 16 19 10 38
-17 57 -43 30 -92 -5 -92 -64 0 -23 -2 -26 -14 -15 -8 7 -12 16 -9 21 2 4 -3
10 -11 13 -9 4 -26 -5 -42 -23 -18 -19 -24 -22 -20 -10 7 22 15 68 9 50 -4
-11 -23 -11 -53 -3 -3 1 5 5 18 11 13 5 20 13 17 19 -4 6 -3 9 2 8 13 -5 56
39 49 50 -3 5 0 10 7 9 38 -1 57 5 57 18 0 8 9 19 20 25 11 6 20 18 20 26 0 8
4 13 9 9 6 -3 8 3 6 14 -3 15 4 20 31 25 19 4 34 12 34 18 0 5 7 7 16 4 20 -8
57 22 47 37 -3 6 -1 7 5 3 6 -4 8 -14 5 -24 -4 -9 10 0 31 21 20 20 34 42 31
47 -3 5 0 7 8 4 8 -3 20 3 28 12 8 10 9 15 3 11 -7 -4 -26 -2 -43 4 -23 8 -31
17 -31 36 0 14 4 21 10 18 10 -6 39 16 43 32 1 4 8 7 15 5 9 -2 11 1 6 9 -5 9
-1 11 14 7 13 -4 22 -1 22 5 0 8 3 8 11 0 6 -6 18 -9 27 -6 10 4 13 2 8 -5 -4
-7 -3 -12 2 -12 6 0 13 -11 16 -25 4 -16 11 -22 21 -19 8 4 12 11 9 18 -3 6 3
1 14 -11 14 -16 22 -19 31 -10 8 8 11 7 11 -6 0 -9 6 -17 13 -17 24 0 83 -83
71 -101 -3 -6 2 -21 10 -34 16 -24 15 -25 -3 -25 -14 0 -18 -7 -17 -24 0 -13
5 -22 9 -19 5 3 6 11 3 19 -4 11 1 14 21 12 24 -3 28 1 34 34 5 31 2 40 -15
53 -12 9 -14 13 -6 9 11 -6 11 -3 -2 12 -12 14 -14 24 -8 30 6 6 8 19 4 28 -4
12 -9 14 -14 6 -9 -15 -34 -4 -45 23 -6 12 -19 26 -30 32 -42 21 -48 27 -35
35 8 5 -1 12 -24 20 -20 6 -42 20 -49 31 -13 20 -47 26 -47 8z m-227 -140
c-11 -12 -27 -19 -34 -17 -9 3 -3 10 16 20 41 22 43 21 18 -3z m44 -21 c-3 -7
-5 -2 -5 12 0 14 2 19 5 13 2 -7 2 -19 0 -25z m-17 -18 c0 -5 -2 -10 -4 -10
-3 0 -8 5 -11 10 -3 6 -1 10 4 10 6 0 11 -4 11 -10z m80 -10 c-10 -18 -50 -47
-50 -36 0 8 44 54 53 55 4 1 3 -8 -3 -19z m-120 -11 c0 -6 -4 -7 -10 -4 -5 3
-10 11 -10 16 0 6 5 7 10 4 6 -3 10 -11 10 -16z m-74 -46 c-24 -13 -30 -13
-37 -1 -14 21 -10 26 14 21 22 -5 22 -5 2 11 -19 16 -18 16 14 0 l35 -16 -28
-15z m104 38 c0 -5 -7 -11 -14 -14 -10 -4 -13 -1 -9 9 6 15 23 19 23 5z m-40
-17 c0 -2 -7 -4 -15 -4 -8 0 -15 4 -15 10 0 5 7 7 15 4 8 -4 15 -8 15 -10z
m-5 -62 c-3 -3 -11 0 -18 7 -9 10 -8 11 6 5 10 -3 15 -9 12 -12z m-385 -144
c0 -5 -5 -6 -10 -3 -6 3 -13 -1 -16 -9 -3 -9 -16 -16 -28 -16 -15 0 -17 3 -8
9 7 4 12 12 11 17 -3 18 1 21 26 16 14 -2 25 -9 25 -14z m-72 -48 c7 -11 9
-20 4 -20 -10 0 -32 22 -32 32 0 15 15 8 28 -12z m456 -38 c2 -4 -6 -12 -19
-18 -20 -10 -23 -9 -22 7 1 19 31 27 41 11z m-404 -16 c0 -2 -7 -6 -15 -10 -8
-3 -15 -1 -15 4 0 6 7 10 15 10 8 0 15 -2 15 -4z m347 -2 c-3 -3 -12 -4 -19
-1 -8 3 -5 6 6 6 11 1 17 -2 13 -5z m43 -34 c0 -22 -57 -21 -63 1 -4 14 2 17
29 16 24 -1 34 -6 34 -17z m-310 -24 c0 -8 -8 -24 -19 -37 -19 -23 -17 -64 2
-52 7 4 8 0 3 -13 -13 -33 -15 -54 -5 -54 5 0 9 9 9 21 0 21 17 42 38 47 15 3
15 -3 2 -29 -7 -12 -7 -19 -1 -19 6 0 15 -10 22 -21 8 -15 8 -19 0 -15 -7 5
-11 -1 -11 -14 0 -12 -4 -19 -9 -15 -5 3 -12 1 -16 -5 -10 -16 -21 -12 -35 16
l-14 25 -13 -25 c-8 -15 -19 -26 -25 -26 -15 0 -68 57 -67 72 0 10 2 10 6 1 9
-23 22 -13 17 13 -3 14 1 33 8 42 10 12 10 14 1 8 -7 -4 -13 -2 -13 3 0 6 5
11 10 11 6 0 10 8 10 18 1 16 2 15 15 -2 14 -18 15 -18 26 8 7 15 18 25 26 22
13 -5 17 5 14 33 -2 7 2 10 8 6 6 -3 11 -12 11 -19z m40 -29 c0 -2 -11 -14
-24 -26 -19 -18 -24 -20 -29 -7 -4 10 -1 13 7 10 7 -3 16 2 19 10 5 13 27 23
27 13z m165 -17 c3 -5 1 -10 -4 -10 -6 0 -11 5 -11 10 0 6 2 10 4 10 3 0 8 -4
11 -10z m-91 -55 c-21 -19 -46 -35 -56 -35 -22 0 -22 2 1 29 11 13 25 19 35
15 9 -3 16 -1 16 4 0 6 8 13 18 15 9 3 19 5 21 6 2 0 -14 -15 -35 -34z m-315
-34 c0 -10 -3 -8 -10 7 -5 14 -13 20 -20 16 -8 -4 -9 -3 -5 5 10 16 36 -5 35
-28z m-59 -16 c-7 -9 -15 -13 -19 -10 -3 3 1 10 9 15 21 14 24 12 10 -5z m818
-393 c6 -18 -26 -26 -44 -11 -14 12 -14 14 3 20 22 9 36 6 41 -9z m-98 -62 c0
-5 -4 -10 -10 -10 -5 0 -10 5 -10 10 0 6 5 10 10 10 6 0 10 -4 10 -10z m310
-25 c0 -8 -4 -15 -10 -15 -5 0 -10 7 -10 15 0 8 5 15 10 15 6 0 10 -7 10 -15z
m-316 -28 c12 -13 20 -29 19 -34 -2 -6 1 -14 6 -18 6 -3 11 -13 11 -22 0 -9
-3 -13 -7 -10 -3 4 -12 2 -20 -4 -10 -9 -13 -8 -13 2 0 11 -2 11 -10 -1 -8
-13 -11 -13 -22 -1 -10 10 -10 12 0 7 20 -11 14 13 -7 25 -19 12 -18 41 2 67
13 16 16 16 41 -11z m21 14 c3 -5 1 -12 -5 -16 -5 -3 -10 1 -10 9 0 18 6 21
15 7z m-823 -153 c-9 -9 -5 -15 19 -25 25 -10 29 -17 24 -35 -4 -13 -14 -30
-22 -38 -13 -13 -16 -13 -28 4 -20 27 -8 132 13 111 3 -3 0 -11 -6 -17z m558
-79 c0 -5 -4 -9 -10 -9 -5 0 -10 7 -10 16 0 8 5 12 10 9 6 -3 10 -10 10 -16z
m-470 -21 c0 -18 -2 -20 -9 -8 -6 8 -7 18 -5 22 9 14 14 9 14 -14z m31 -40
c-12 -4 -21 -13 -21 -20 0 -10 -2 -10 -9 1 -13 21 18 54 37 39 11 -10 10 -13
-7 -20z m-71 8 c0 -2 3 -12 7 -22 4 -11 3 -15 -4 -11 -6 4 -14 0 -17 -9 -9
-23 -7 -34 4 -34 5 0 7 7 4 15 -4 9 0 15 8 15 16 0 19 -51 3 -57 -16 -5 -50
58 -36 66 6 4 9 15 5 24 -4 12 -1 17 10 17 9 0 16 -2 16 -4z m476 -5 c-4 -5 0
-11 6 -14 10 -3 10 -8 -1 -18 -8 -8 -11 -9 -8 -3 4 7 0 17 -8 24 -11 9 -15 9
-15 1 0 -7 -4 -9 -10 -6 -19 11 -10 25 16 25 14 0 23 -4 20 -9z m-371 -21 c-3
-5 -13 -10 -21 -10 -8 0 -12 5 -9 10 3 6 13 10 21 10 8 0 12 -4 9 -10z"/>
<path d="M3015 3040 c4 -6 11 -8 16 -5 14 9 11 15 -7 15 -8 0 -12 -5 -9 -10z"/>
<path d="M2900 2976 c-9 -11 -7 -16 10 -21 28 -9 36 0 17 19 -13 13 -17 13
-27 2z"/>
<path d="M1846 2932 c-3 -6 6 -13 19 -16 14 -4 23 -11 20 -16 -3 -6 0 -10 7
-10 8 0 14 9 15 20 1 11 -4 20 -12 20 -7 0 -20 3 -28 6 -8 3 -18 1 -21 -4z"/>
<path d="M1914 2891 c0 -12 7 -18 21 -17 11 1 19 -5 18 -11 -2 -7 2 -13 7 -13
16 0 11 26 -8 43 -24 22 -38 21 -38 -2z"/>
<path d="M3398 2893 c7 -3 16 -2 19 1 4 3 -2 6 -13 5 -11 0 -14 -3 -6 -6z"/>
<path d="M3387 2860 c-8 -11 -16 -17 -20 -14 -8 9 -3 -19 7 -35 6 -10 5 -12
-2 -7 -7 4 -12 2 -12 -3 0 -6 6 -11 14 -11 16 0 29 -27 19 -42 -4 -7 -1 -8 6
-4 7 5 10 14 7 21 -2 7 1 18 7 25 9 10 9 11 0 6 -17 -9 -27 12 -13 29 7 8 15
14 18 13 21 -2 31 4 26 17 -4 8 -10 12 -15 9 -5 -3 -9 0 -9 5 0 18 -18 13 -33
-9z"/>
<path d="M2955 2850 c-18 -8 -17 -9 8 -9 15 -1 27 4 27 9 0 12 -8 12 -35 0z"/>
<path d="M1960 2827 c0 -5 11 -6 25 -3 20 5 25 3 25 -14 0 -11 5 -20 10 -20
14 0 12 27 -2 37 -18 11 -58 11 -58 0z"/>
<path d="M1950 2765 c-11 -13 -10 -14 4 -9 9 3 16 10 16 15 0 13 -6 11 -20 -6z"/>
<path d="M1876 2755 c4 -8 1 -22 -6 -31 -10 -12 -11 -17 -1 -27 10 -9 11 -9 6
4 -3 9 1 21 9 28 15 12 12 41 -5 41 -4 0 -6 -7 -3 -15z"/>
<path d="M3570 2766 c0 -2 7 -7 16 -10 8 -3 12 -2 9 4 -6 10 -25 14 -25 6z"/>
<path d="M1705 2749 c-10 -15 3 -25 16 -12 7 7 7 13 1 17 -6 3 -14 1 -17 -5z"/>
<path d="M3349 2758 c-6 -12 -3 -66 3 -62 4 3 8 12 8 20 0 8 4 14 8 14 5 0 9
7 9 15 0 12 -23 22 -28 13z"/>
<path d="M3623 2753 c9 -2 25 -2 35 0 9 3 1 5 -18 5 -19 0 -27 -2 -17 -5z"/>
<path d="M3848 2753 c7 -3 16 -2 19 1 4 3 -2 6 -13 5 -11 0 -14 -3 -6 -6z"/>
<path d="M3690 2735 c7 -9 19 -14 26 -11 7 3 16 1 19 -4 4 -6 14 -10 23 -10
11 0 7 6 -12 15 -15 8 -32 12 -37 9 -5 -3 -9 0 -9 5 0 6 -5 11 -11 11 -8 0 -7
-5 1 -15z"/>
<path d="M1900 2715 c-8 -9 -8 -15 -2 -15 12 0 26 19 19 26 -2 2 -10 -2 -17
-11z"/>
<path d="M3260 2699 c7 -11 14 -19 16 -16 7 7 -7 37 -17 37 -6 0 -5 -9 1 -21z"/>
<path d="M3645 2700 c3 -5 11 -10 16 -10 6 0 7 5 4 10 -3 6 -11 10 -16 10 -6
0 -7 -4 -4 -10z"/>
<path d="M3376 2677 c3 -10 9 -15 12 -12 3 3 0 11 -7 18 -10 9 -11 8 -5 -6z"/>
<path d="M1280 2650 c-8 -5 -10 -10 -5 -10 6 0 17 5 25 10 8 5 11 10 5 10 -5
0 -17 -5 -25 -10z"/>
<path d="M4022 2620 c0 -14 2 -19 5 -12 2 6 2 18 0 25 -3 6 -5 1 -5 -13z"/>
<path d="M1191 2614 c0 -11 3 -14 6 -6 3 7 2 16 -1 19 -3 4 -6 -2 -5 -13z"/>
<path d="M1248 2623 c7 -3 16 -2 19 1 4 3 -2 6 -13 5 -11 0 -14 -3 -6 -6z"/>
<path d="M3331 2594 c0 -11 3 -14 6 -6 3 7 2 16 -1 19 -3 4 -6 -2 -5 -13z"/>
<path d="M4024 2567 c-3 -8 0 -35 6 -62 8 -38 8 -50 -2 -57 -10 -6 -10 -10 2
-18 23 -15 34 -12 20 5 -8 10 -9 15 -2 15 7 0 6 18 -4 51 -9 28 -13 57 -10 65
3 8 3 14 0 14 -2 0 -7 -6 -10 -13z"/>
<path d="M696 2534 c-9 -24 -2 -26 12 -4 7 11 8 20 3 20 -5 0 -12 -7 -15 -16z"/>
<path d="M3400 2516 c7 -7 13 -7 20 0 6 6 3 10 -10 10 -13 0 -16 -4 -10 -10z"/>
<path d="M3453 2507 c-10 -22 -9 -24 13 -24 17 0 22 3 16 11 -5 6 -11 17 -14
25 -2 8 -8 4 -15 -12z"/>
<path d="M2918 2463 c6 -2 18 -2 25 0 6 3 1 5 -13 5 -14 0 -19 -2 -12 -5z"/>
<path d="M3425 2459 c-4 -6 -5 -12 -2 -15 2 -3 7 2 10 11 7 17 1 20 -8 4z"/>
<path d="M3495 2460 c3 -5 8 -10 11 -10 2 0 4 5 4 10 0 6 -5 10 -11 10 -5 0
-7 -4 -4 -10z"/>
<path d="M3529 2443 c-13 -16 -12 -17 4 -4 9 7 17 15 17 17 0 8 -8 3 -21 -13z"/>
<path d="M3670 2425 c0 -9 6 -18 14 -21 18 -7 9 -34 -11 -34 -8 0 -12 4 -9 9
3 5 0 11 -7 14 -8 3 -14 -1 -14 -9 0 -7 7 -16 14 -19 19 -7 63 5 63 17 0 5 5
6 10 3 6 -3 10 -4 10 -1 0 3 -14 13 -30 21 -17 9 -28 20 -25 25 4 6 1 10 -4
10 -6 0 -11 -7 -11 -15z"/>
<path d="M2955 2421 c-3 -5 -2 -12 3 -15 5 -3 9 1 9 9 0 17 -3 19 -12 6z"/>
<path d="M3564 2419 c3 -12 -1 -15 -13 -12 -20 5 -37 -32 -20 -43 5 -3 7 -9 4
-14 -11 -18 14 -19 35 -2 21 17 21 19 6 52 -9 19 -14 28 -12 19z"/>
<path d="M1845 2399 c-10 -14 -1 -21 19 -13 9 3 13 10 10 15 -7 12 -21 11 -29
-2z"/>
<path d="M3390 2359 c0 -5 5 -7 10 -4 6 3 10 8 10 11 0 2 -4 4 -10 4 -5 0 -10
-5 -10 -11z"/>
<path d="M3731 2346 c-1 -24 1 -27 14 -16 16 13 21 35 6 26 -5 -4 -12 0 -14 6
-3 7 -6 0 -6 -16z"/>
<path d="M3750 2325 c-13 -14 -18 -25 -11 -25 7 0 9 -4 6 -10 -3 -5 1 -10 11
-10 13 0 14 -3 5 -14 -9 -11 -6 -12 14 -8 14 2 25 8 25 13 0 5 7 9 15 9 8 0
15 -8 15 -17 0 -11 -3 -14 -8 -7 -4 6 -13 4 -24 -7 -16 -17 -16 -18 3 -24 24
-8 25 -22 2 -28 -17 -4 -17 -4 1 -12 21 -9 36 8 29 35 -3 10 2 20 11 23 18 7
22 38 5 35 -6 -2 -14 3 -16 10 -3 6 0 12 6 12 6 0 11 5 11 12 0 6 -8 4 -19 -6
-28 -26 -65 -13 -57 20 8 30 5 30 -24 -1z"/>
<path d="M3617 2236 c-3 -8 -4 -22 -2 -32 2 -11 4 -25 4 -32 1 -7 6 -10 11 -7
8 5 7 12 -1 23 -6 10 1 4 15 -12 15 -16 25 -35 22 -42 -3 -8 -1 -14 4 -14 6 0
10 4 10 10 0 5 11 12 25 16 14 3 25 10 25 16 0 5 -4 6 -10 3 -5 -3 -10 0 -10
9 0 8 4 16 10 18 6 2 6 9 0 18 -7 12 -10 11 -17 -7 -9 -26 -22 -30 -34 -12 -5
8 -3 17 4 21 7 5 2 7 -13 6 -19 -2 -25 2 -24 15 2 20 -12 23 -19 3z"/>
<path d="M3850 2219 c0 -5 5 -7 10 -4 6 3 10 8 10 11 0 2 -4 4 -10 4 -5 0 -10
-5 -10 -11z"/>
<path d="M3760 2175 c0 -17 -4 -24 -12 -19 -6 4 -8 3 -5 -3 10 -15 -11 -78
-32 -97 -10 -9 -29 -17 -42 -18 -29 -2 -92 25 -82 35 3 4 2 7 -4 7 -6 0 -9 8
-6 19 3 14 -2 20 -24 26 l-28 8 25 7 c23 8 23 8 -8 9 -20 1 -35 -5 -38 -14 -6
-16 -44 -21 -44 -7 0 5 10 14 23 20 19 9 17 10 -13 5 -33 -5 -34 -5 -15 10 20
16 20 16 -2 17 -13 0 -23 -4 -23 -9 0 -5 -9 -12 -19 -16 -11 -3 -22 -19 -26
-36 -7 -31 1 -51 13 -33 4 5 25 10 47 9 22 0 52 5 66 12 32 15 51 0 43 -34 -5
-17 0 -21 34 -27 22 -3 42 -11 44 -18 5 -15 71 -15 76 0 2 7 7 10 11 7 11 -6
28 32 36 78 3 20 10 37 15 37 13 0 13 37 0 45 -6 4 -10 -5 -10 -20z"/>
<path d="M3295 2070 c3 -5 11 -10 16 -10 6 0 7 5 4 10 -3 6 -11 10 -16 10 -6
0 -7 -4 -4 -10z"/>
<path d="M3481 2054 c0 -11 3 -14 6 -6 3 7 2 16 -1 19 -3 4 -6 -2 -5 -13z"/>
<path d="M3352 2035 c12 -14 23 -25 25 -25 2 0 -4 11 -13 25 -9 14 -20 25 -25
25 -5 0 1 -11 13 -25z"/>
<path d="M4410 1945 c-7 -9 -8 -15 -2 -15 5 0 12 7 16 15 3 8 4 15 2 15 -2 0
-9 -7 -16 -15z"/>
<path d="M4365 1920 c-4 -6 -4 -10 -1 -10 2 0 11 -3 20 -6 9 -3 16 -2 16 4 0
14 -28 23 -35 12z"/>
<path d="M4510 1909 c0 -6 7 -9 15 -5 8 3 15 1 15 -5 0 -6 5 -7 10 -4 6 4 8
11 5 16 -9 13 -45 11 -45 -2z"/>
<path d="M4420 1899 c0 -5 5 -7 10 -4 6 3 10 8 10 11 0 2 -4 4 -10 4 -5 0 -10
-5 -10 -11z"/>
<path d="M2490 1889 c0 -5 -4 -8 -9 -5 -5 4 -7 -4 -3 -16 3 -12 7 -17 9 -11 4
10 8 10 18 0 7 -7 11 -15 9 -19 -3 -4 4 -6 15 -5 33 2 33 35 1 52 -34 18 -40
18 -40 4z"/>
<path d="M4570 1896 c0 -3 9 -10 20 -16 11 -6 20 -8 20 -6 0 3 -9 10 -20 16
-11 6 -20 8 -20 6z"/>
<path d="M2590 1865 c0 -8 2 -15 4 -15 2 0 6 7 10 15 3 8 1 15 -4 15 -6 0 -10
-7 -10 -15z"/>
<path d="M4294 1865 c-4 -8 -12 -15 -20 -15 -8 0 -14 -4 -14 -9 0 -5 -3 -16
-6 -25 -3 -9 -1 -16 6 -16 19 0 45 -32 47 -57 1 -13 -3 -23 -9 -23 -6 0 -8 -3
-4 -7 4 -4 -10 -12 -31 -18 -22 -7 -37 -17 -35 -25 7 -32 -51 -58 -86 -36 -5
3 -8 -5 -7 -17 1 -12 3 -29 4 -39 1 -11 7 -15 21 -11 11 3 20 0 20 -6 0 -6 7
-11 16 -11 8 0 13 4 10 8 -2 4 -1 14 4 22 7 12 12 11 29 -4 12 -11 21 -16 21
-13 0 3 -10 15 -22 27 -18 17 -19 20 -5 20 9 0 17 5 17 11 0 5 5 7 11 3 8 -4
8 -1 1 12 -7 13 -6 22 2 29 19 17 46 17 46 0 0 -8 5 -15 10 -15 6 0 10 -10 10
-22 0 -18 2 -20 9 -9 5 8 8 23 6 33 -5 23 1 23 32 -2 21 -16 27 -17 38 -6 24
23 22 59 -3 72 -31 15 -36 22 -16 21 9 -1 19 4 22 12 3 11 -2 12 -23 7 -20 -5
-26 -3 -23 6 3 7 15 12 26 10 12 -2 22 1 22 7 0 15 -14 21 -29 12 -8 -5 -25
-3 -40 5 -14 8 -34 14 -43 14 -33 0 -29 20 4 21 25 1 27 3 10 6 -18 3 -23 10
-19 24 6 22 -1 26 -9 4z"/>
<path d="M2625 1841 c-3 -5 -2 -12 3 -15 5 -3 9 1 9 9 0 17 -3 19 -12 6z"/>
<path d="M4360 1825 c0 -17 2 -18 24 -9 18 7 12 24 -10 24 -8 0 -14 -7 -14
-15z"/>
<path d="M4580 1824 c0 -8 -4 -12 -10 -9 -6 4 -7 -1 -3 -11 5 -15 7 -15 15 0
5 9 15 13 21 9 7 -4 6 0 -2 10 -17 21 -21 21 -21 1z"/>
<path d="M2523 1785 c-9 -26 6 -30 27 -7 l21 22 -21 0 c-11 0 -23 -7 -27 -15z"/>
<path d="M4450 1759 c0 -5 5 -7 10 -4 6 3 10 -1 10 -9 0 -8 -8 -20 -17 -25
-10 -6 -13 -10 -8 -10 6 0 19 6 29 14 16 12 17 17 6 30 -14 17 -30 20 -30 4z"/>
<path d="M1190 1670 c0 -5 7 -10 16 -10 8 0 12 5 9 10 -3 6 -10 10 -16 10 -5
0 -9 -4 -9 -10z"/>
<path d="M3510 1640 c-13 -8 -12 -10 3 -10 9 0 17 5 17 10 0 12 -1 12 -20 0z"/>
<path d="M4405 1569 c8 -13 -23 -38 -48 -39 -10 0 -34 -12 -53 -26 -19 -15
-34 -21 -34 -15 0 7 -4 10 -9 6 -5 -3 -13 0 -17 6 -5 9 -10 8 -18 -3 -7 -9
-23 -15 -36 -14 -19 1 -26 -5 -28 -21 -3 -19 -6 -20 -33 -11 -16 5 -29 15 -30
21 0 7 -4 2 -10 -11 -5 -13 -14 -20 -20 -16 -8 4 -9 0 -4 -15 4 -12 2 -21 -4
-21 -6 0 -12 10 -12 23 -1 20 -2 20 -6 2 -3 -11 -14 -29 -24 -41 -19 -20 -19
-21 1 -39 18 -16 23 -17 30 -5 6 8 10 21 10 29 0 11 -3 11 -15 1 -12 -10 -15
-9 -15 5 0 13 5 16 23 11 12 -3 26 -6 31 -6 4 0 1 -11 -8 -24 -15 -23 -14 -25
3 -23 10 0 18 8 17 17 -1 10 7 14 22 13 13 -2 21 1 17 7 -3 6 -13 10 -22 10
-9 0 -13 3 -10 7 4 3 2 12 -4 20 -9 10 -6 12 20 7 18 -4 37 -2 44 5 11 8 21 5
43 -14 28 -24 28 -25 15 -77 -7 -29 -15 -72 -18 -95 -5 -45 -7 -42 79 -120 10
-9 15 -20 12 -24 -2 -4 5 -13 16 -19 11 -6 20 -15 20 -21 0 -6 -4 -7 -10 -4
-6 3 -10 -4 -10 -18 0 -29 -41 -52 -59 -34 -9 9 -14 9 -20 -2 -5 -7 -15 -11
-22 -9 -7 2 -29 -3 -47 -12 -25 -12 -45 -15 -69 -10 -26 6 -36 5 -40 -6 -3 -8
-14 -14 -24 -14 -11 0 -32 -8 -46 -17 -15 -10 -24 -13 -20 -7 14 23 -24 24
-46 1 -12 -13 -16 -15 -9 -6 10 13 11 22 3 36 -6 10 -11 14 -11 10 0 -5 -7 -1
-16 8 -15 14 -19 13 -56 -20 -32 -29 -42 -34 -54 -24 -8 6 -14 23 -14 38 -1
22 -2 24 -11 9 -11 -20 -39 -24 -39 -7 0 6 -8 8 -19 4 -11 -3 -40 6 -74 25
-30 16 -60 30 -66 30 -6 0 -24 -14 -42 -31 -29 -28 -32 -29 -49 -14 -9 8 -24
13 -34 9 -11 -4 -16 -1 -16 10 0 12 -10 16 -45 16 -26 0 -45 -5 -45 -11 0 -6
7 -8 16 -5 22 8 64 -4 64 -19 0 -6 13 -12 30 -13 34 -1 50 -8 50 -23 0 -6 -5
-7 -12 -3 -7 4 -8 3 -4 -5 9 -15 26 -5 26 16 0 9 3 13 7 10 8 -9 34 13 28 24
-3 4 2 12 12 17 13 7 27 4 48 -9 17 -11 26 -19 20 -19 -5 0 -2 -5 8 -11 9 -6
15 -14 12 -19 -3 -5 -1 -11 5 -15 6 -4 8 -10 5 -15 -3 -5 -1 -11 5 -15 5 -3
10 1 10 9 0 10 6 13 15 10 8 -4 15 -12 15 -20 0 -8 5 -14 10 -14 6 0 10 5 10
11 0 5 5 7 10 4 6 -3 10 -1 10 5 0 7 5 6 14 -2 8 -7 12 -16 9 -20 -2 -4 5 -17
15 -29 19 -20 41 -11 27 11 -3 5 1 10 10 10 9 0 15 7 13 16 -2 12 6 17 30 19
25 2 32 -1 28 -11 -3 -8 0 -13 7 -11 7 1 12 -8 11 -20 0 -13 3 -23 7 -23 4 0
14 -3 23 -6 11 -4 16 -1 16 10 0 22 23 16 34 -9 8 -19 9 -18 20 8 7 15 15 24
19 21 4 -4 7 0 7 10 0 28 41 40 96 28 32 -7 50 -7 52 -1 3 6 9 6 17 -1 18 -15
65 -2 65 19 0 9 23 29 50 45 27 16 52 36 55 44 10 27 -7 91 -26 97 -11 4 -19
12 -19 20 0 7 -17 22 -37 32 -34 18 -38 25 -41 61 -2 33 5 57 33 108 20 37 34
78 33 93 -3 34 31 80 58 81 26 0 74 36 74 56 0 8 -5 14 -11 14 -5 0 -7 -5 -4
-11z m-140 -158 c0 -19 -5 -36 -12 -38 -8 -3 -10 4 -7 21 3 19 1 24 -10 20
-10 -4 -13 0 -10 13 3 10 13 19 22 19 13 0 17 -9 17 -35z m-55 -470 c0 -4 -15
-5 -32 -3 -28 4 -30 6 -13 12 21 8 45 3 45 -9z m-506 1 c2 -4 -4 -8 -15 -8
-10 0 -19 4 -19 8 0 4 6 8 14 8 8 0 17 -4 20 -8z m86 -42 c0 -5 -4 -10 -10
-10 -5 0 -10 5 -10 10 0 6 5 10 10 10 6 0 10 -4 10 -10z"/>
<path d="M612 1525 c0 -16 2 -22 5 -12 2 9 2 23 0 30 -3 6 -5 -1 -5 -18z"/>
<path d="M4040 1525 c-7 -8 -9 -15 -6 -15 4 0 14 7 22 15 9 8 11 15 6 15 -5 0
-15 -7 -22 -15z"/>
<path d="M4101 1518 c-1 -21 7 -22 29 -7 13 9 13 10 -2 6 -9 -3 -19 -1 -22 6
-2 7 -5 4 -5 -5z"/>
<path d="M1309 1513 c11 -4 8 -9 -9 -18 -12 -7 -18 -15 -13 -18 5 -3 22 1 37
9 16 7 35 14 44 14 26 0 9 7 -33 13 -22 4 -34 4 -26 0z"/>
<path d="M3996 1505 c-9 -10 -16 -33 -16 -56 0 -37 -2 -40 -21 -34 -15 5 -19
4 -15 -4 5 -7 -2 -11 -18 -11 -14 0 -27 4 -30 9 -11 17 -75 50 -70 36 6 -16
-12 -29 -27 -19 -8 4 -7 9 2 16 10 6 3 8 -20 5 -28 -3 -39 2 -67 30 -40 40
-66 45 -29 6 14 -15 25 -31 25 -35 0 -3 14 -9 31 -13 17 -4 33 -13 36 -21 3
-8 11 -14 19 -14 8 0 14 -4 14 -10 0 -5 19 -10 43 -10 103 -1 116 -2 116 -8
-1 -4 -1 -15 0 -24 1 -22 21 -24 21 -3 0 8 -4 15 -8 15 -15 0 -9 29 6 35 8 3
12 12 8 21 -4 10 1 22 11 30 17 13 17 13 1 14 -23 0 -23 19 -1 36 10 7 15 15
12 19 -4 3 -14 -1 -23 -10z m-146 -101 c0 -8 -7 -14 -15 -14 -17 0 -18 2 -9
24 7 18 24 12 24 -10z"/>
<path d="M1039 1465 c42 -19 52 -19 27 0 -11 8 -29 15 -40 15 -16 -1 -12 -5
13 -15z"/>
<path d="M886 1425 c4 -8 10 -12 15 -9 14 8 10 24 -6 24 -9 0 -12 -6 -9 -15z"/>
<path d="M1262 1428 c-17 -17 -15 -25 8 -31 11 -3 18 -1 15 3 -3 5 0 10 7 12
6 2 8 10 4 16 -9 15 -19 15 -34 0z"/>
<path d="M566 1379 c-14 -17 -26 -38 -26 -48 0 -10 -11 -28 -25 -41 -17 -16
-25 -34 -25 -56 0 -17 -7 -37 -15 -44 -22 -18 -19 -57 6 -70 32 -18 62 -4 85
37 17 32 19 45 11 80 -9 38 -7 45 17 73 14 17 26 35 26 40 0 5 3 17 6 27 5 15
4 15 -5 3 -9 -13 -11 -13 -11 2 0 30 -18 29 -44 -3z m-30 -148 c-10 -10 -13
-21 -8 -22 6 -2 4 -10 -4 -17 -13 -11 -14 -10 -10 12 6 32 14 46 28 46 6 0 3
-9 -6 -19z"/>
<path d="M1135 1339 c11 -13 21 -26 22 -28 2 -2 3 2 3 10 0 8 -10 20 -22 28
l-23 14 20 -24z"/>
<path d="M3945 1340 c3 -5 8 -10 11 -10 2 0 4 5 4 10 0 6 -5 10 -11 10 -5 0
-7 -4 -4 -10z"/>
<path d="M4118 1303 c7 -3 16 -2 19 1 4 3 -2 6 -13 5 -11 0 -14 -3 -6 -6z"/>
<path d="M962 1280 c0 -14 2 -19 5 -12 2 6 2 18 0 25 -3 6 -5 1 -5 -13z"/>
<path d="M1169 1287 c5 -5 19 -7 32 -5 20 3 19 5 -9 9 -20 3 -29 2 -23 -4z"/>
<path d="M3980 1290 c0 -5 5 -10 10 -10 6 0 10 5 10 10 0 6 -4 10 -10 10 -5 0
-10 -4 -10 -10z"/>
<path d="M3947 1241 c-4 -17 -3 -21 5 -13 5 5 8 16 6 23 -3 8 -7 3 -11 -10z"/>
<path d="M4008 1243 c7 -3 16 -2 19 1 4 3 -2 6 -13 5 -11 0 -14 -3 -6 -6z"/>
<path d="M1434 1205 c0 -22 3 -31 8 -23 10 16 10 58 1 58 -5 0 -8 -16 -9 -35z"/>
<path d="M1615 1175 c11 -9 25 -13 32 -11 7 3 10 -1 6 -10 -4 -10 0 -12 11 -8
9 3 16 2 16 -3 0 -19 -13 -22 -36 -6 -13 8 -24 12 -24 8 0 -16 33 -75 42 -75
6 0 5 -6 -2 -15 -8 -9 -9 -15 -2 -15 6 0 13 4 17 9 3 5 19 9 35 9 16 -1 27 -5
24 -10 -3 -5 -12 -7 -19 -4 -9 3 -11 -2 -8 -15 6 -22 36 -18 63 8 13 13 12 16
-9 34 -13 10 -18 19 -12 19 6 0 8 7 5 15 -4 8 -10 15 -16 15 -5 0 -6 -5 -2
-12 4 -7 3 -8 -5 -4 -6 4 -19 2 -28 -6 -12 -9 -15 -9 -9 0 4 6 3 12 -3 12 -6
0 -8 12 -5 30 7 32 4 34 -56 44 -33 5 -34 5 -15 -9z"/>
<path d="M1423 1125 c0 -22 2 -30 4 -17 2 12 2 30 0 40 -3 9 -5 -1 -4 -23z"/>
<path d="M1590 1136 c0 -8 7 -16 15 -20 13 -4 14 -2 5 14 -13 23 -20 26 -20 6z"/>
<path d="M1432 1055 c0 -60 22 -127 50 -148 14 -11 31 -16 37 -13 14 9 14 36
0 36 -5 0 -7 -4 -4 -10 3 -5 -1 -10 -10 -10 -9 0 -13 5 -10 10 3 6 -1 10 -9
10 -14 0 -38 62 -49 130 -4 22 -4 21 -5 -5z"/>
<path d="M2265 1060 c-3 -5 -1 -10 4 -10 6 0 11 5 11 10 0 6 -2 10 -4 10 -3 0
-8 -4 -11 -10z"/>
<path d="M2830 1053 c8 -3 23 -15 33 -27 15 -18 16 -19 10 -2 -5 17 -3 18 23
12 26 -6 27 -5 9 6 -11 7 -36 13 -55 14 -19 1 -28 0 -20 -3z"/>
<path d="M2945 1040 c-2 -3 7 -7 20 -8 13 -1 26 2 29 6 2 4 -7 7 -21 7 -14 0
-26 -2 -28 -5z"/>
<path d="M3260 1015 c13 -16 55 -21 45 -5 -3 5 -12 7 -20 3 -8 -3 -15 0 -15 6
0 6 -5 11 -11 11 -8 0 -8 -5 1 -15z"/>
<path d="M1872 1009 c2 -7 10 -15 17 -17 8 -3 12 1 9 9 -2 7 -10 15 -17 17 -8
3 -12 -1 -9 -9z"/>
<path d="M2754 1005 c-22 -16 -54 -20 -54 -5 0 6 -9 6 -26 0 -14 -6 -30 -8
-35 -4 -5 3 -9 0 -9 -7 0 -7 -11 -10 -30 -7 -17 3 -27 1 -23 -3 11 -10 80 -15
89 -6 4 4 19 7 33 7 40 0 69 10 75 26 7 18 4 18 -20 -1z"/>
<path d="M3026 1005 c10 -8 28 -15 38 -15 20 0 20 0 0 15 -10 8 -28 15 -38 15
-20 0 -20 0 0 -15z"/>
<path d="M3210 1010 c0 -6 7 -10 15 -10 8 0 15 2 15 4 0 2 -7 6 -15 10 -8 3
-15 1 -15 -4z"/>
<path d="M3103 990 c-4 -16 -12 -19 -55 -16 -32 2 -44 0 -34 -6 20 -11 126
-16 126 -5 0 4 -7 7 -16 7 -11 0 -15 6 -11 20 3 11 3 20 0 20 -3 0 -7 -9 -10
-20z"/>
<path d="M2535 990 c3 -5 8 -10 11 -10 2 0 4 5 4 10 0 6 -5 10 -11 10 -5 0 -7
-4 -4 -10z"/>
<path d="M2900 986 c0 -3 9 -10 20 -16 11 -6 20 -8 20 -6 0 3 -9 10 -20 16
-11 6 -20 8 -20 6z"/>
<path d="M3140 986 c0 -2 8 -10 18 -17 15 -13 16 -12 3 4 -13 16 -21 21 -21
13z"/>
<path d="M1644 936 c-18 -8 -35 -19 -39 -25 -3 -6 12 -2 34 10 23 11 41 23 41
25 0 5 0 5 -36 -10z"/>
<path d="M1771 931 c-8 -5 -9 -11 -3 -15 5 -3 12 1 16 9 6 17 6 18 -13 6z"/>
<path d="M1540 790 c-8 -5 -10 -10 -5 -10 6 0 17 5 25 10 8 5 11 10 5 10 -5 0
-17 -5 -25 -10z"/>
<path d="M2515 731 c-7 -12 12 -24 25 -16 11 7 4 25 -10 25 -5 0 -11 -4 -15
-9z"/>
<path d="M3590 539 c0 -5 5 -7 10 -4 6 3 10 8 10 11 0 2 -4 4 -10 4 -5 0 -10
-5 -10 -11z"/>
<path d="M3361 516 c2 -2 22 -6 44 -9 28 -5 34 -4 20 3 -19 8 -73 14 -64 6z"/>
<path d="M3562 440 c0 -14 2 -19 5 -12 2 6 2 18 0 25 -3 6 -5 1 -5 -13z"/>
<path d="M3491 324 c0 -11 3 -14 6 -6 3 7 2 16 -1 19 -3 4 -6 -2 -5 -13z"/>
</g>
</svg>
